<svg width="640" height="640" viewBox="0 0 640 640" fill="none" xmlns="http://www.w3.org/2000/svg">
  <defs>
    <radialGradient id="halo" cx="50%" cy="50%" r="60%">
      <stop offset="0%" stop-color="#f1f2ff" stop-opacity="0.9" />
      <stop offset="70%" stop-color="#9ba7ff" stop-opacity="0.6" />
      <stop offset="100%" stop-color="#1a1f3f" stop-opacity="0.8" />
    </radialGradient>
    <linearGradient id="face" x1="0" y1="0" x2="1" y2="1">
      <stop offset="0%" stop-color="#ffdeb8" />
      <stop offset="100%" stop-color="#f9a678" />
    </linearGradient>
    <linearGradient id="hair" x1="0" y1="0" x2="1" y2="1">
      <stop offset="0%" stop-color="#1f1c40" />
      <stop offset="100%" stop-color="#34276c" />
    </linearGradient>
  </defs>
  <rect width="640" height="640" rx="320" fill="#070b1f" />
  <circle cx="320" cy="320" r="280" fill="url(#halo)" opacity="0.8" />
  <path d="M200 240C220 180 280 160 320 160C360 160 420 180 440 240C460 300 420 420 320 420C220 420 180 300 200 240Z" fill="url(#hair)" />
  <ellipse cx="320" cy="320" rx="120" ry="140" fill="url(#face)" />
  <ellipse cx="280" cy="300" rx="22" ry="18" fill="#2f2a57" opacity="0.8" />
  <ellipse cx="360" cy="300" rx="22" ry="18" fill="#2f2a57" opacity="0.8" />
  <path d="M276 368C296 388 344 388 364 368" stroke="#d87f6c" stroke-width="10" stroke-linecap="round" />
  <path d="M240 250C260 232 300 220 320 220C340 220 380 232 400 250" stroke="#0f1228" stroke-width="18" stroke-linecap="round" opacity="0.5" />
  <g opacity="0.45">
    <path d="M180 440C220 500 280 540 320 540C360 540 420 500 460 440" stroke="#ffffff" stroke-width="18" stroke-linecap="round" stroke-opacity="0.25" />
    <path d="M160 460C210 520 280 560 320 560C360 560 430 520 480 460" stroke="#7ecbff" stroke-width="10" stroke-linecap="round" stroke-opacity="0.35" />
  </g>
</svg>
