<svg width="512" height="512" viewBox="0 0 512 512" fill="none" xmlns="http://www.w3.org/2000/svg">
  <rect width="512" height="512" rx="256" fill="url(#paint0_radial)"/>
  <path d="M256 120C209.399 120 171.5 157.899 171.5 204.5C171.5 251.101 209.399 289 256 289C302.601 289 340.5 251.101 340.5 204.5C340.5 157.899 302.601 120 256 120Z" fill="url(#paint1_radial)"/>
  <path d="M135.143 382.172C150.029 330.911 199.659 293 256 293C312.341 293 361.971 330.911 376.857 382.172C381.499 398.573 369.042 414 352 414H160C142.958 414 130.501 398.573 135.143 382.172Z" fill="url(#paint2_linear)"/>
  <defs>
    <radialGradient id="paint0_radial" cx="0" cy="0" r="1" gradientUnits="userSpaceOnUse" gradientTransform="translate(164 108) rotate(45) scale(430)">
      <stop stop-color="#FFE4F6"/>
      <stop offset="0.5" stop-color="#DCEBFF"/>
      <stop offset="1" stop-color="#C0D3FF"/>
    </radialGradient>
    <radialGradient id="paint1_radial" cx="0" cy="0" r="1" gradientUnits="userSpaceOnUse" gradientTransform="translate(214 162) rotate(35) scale(170)">
      <stop stop-color="#FFF6FB"/>
      <stop offset="0.63" stop-color="#D5E6FF"/>
      <stop offset="1" stop-color="#B5C9FF"/>
    </radialGradient>
    <linearGradient id="paint2_linear" x1="256" y1="293" x2="256" y2="414" gradientUnits="userSpaceOnUse">
      <stop stop-color="#F9F0FF"/>
      <stop offset="1" stop-color="#C2D8FF"/>
    </linearGradient>
  </defs>
</svg>
