<svg width="474" height="358" viewBox="0 0 474 358" fill="none" xmlns="http://www.w3.org/2000/svg">
<path opacity="0.9" d="M152.983 347C94.2985 347 45.7051 306.564 37.2766 253.839C35.6219 243.488 40.2441 233.389 47.788 226.11C62.4297 211.983 85.5198 211.637 100.578 225.32L101.091 225.786C109.302 233.246 112.941 244.471 118.29 254.19C124.764 265.954 137.869 274 152.983 274C168.542 274 181.972 265.473 188.231 253.14C192.928 243.885 196.174 233.414 203.605 226.169C218.129 212.01 241.147 211.551 256.224 225.119L256.912 225.737C265.232 233.225 270.39 243.973 268.496 255.005C259.543 307.159 211.234 347 152.983 347Z" stroke="#606887" stroke-width="10"/>
<path d="M163.986 5C80.3013 5 13.5034 64.6834 5.21662 142.296C3.67664 156.72 10.532 170.78 21.2954 181.06C43.0688 201.856 76.7407 202.361 97.4656 182.201L98.1532 181.532C108.996 170.985 113.357 155.459 119.756 141.684C128.01 123.913 146.431 111.667 168.317 111.667C198.877 111.667 224.621 135.545 225.817 165C226.719 187.199 213.419 206.231 193.73 214.26C180.991 219.455 167.216 223.84 157.616 233.57C136.876 254.591 138.307 289.474 160.955 310.279C171.241 319.728 184.697 325.373 198.219 323.696C279.435 313.623 339.792 246.413 336.486 165C332.897 76.6344 255.666 5 163.986 5Z" stroke="#606887" stroke-width="10"/>
<rect width="69.1299" height="230.201" rx="34.565" transform="matrix(0.989521 -0.14439 -0.169429 -0.985543 368.986 356.854)" stroke="#606887" stroke-width="10"/>
<path d="M362.378 156.771C321.716 168.224 294.73 199.608 295.996 230.915C296.349 239.662 303.271 246.532 311.604 249.871C323.934 254.812 337.872 251.102 345.591 240.827L345.902 240.413C351.42 233.067 351.926 222.676 356.125 214.511C359.572 207.808 366.715 202.08 375.995 199.466C385.686 196.737 395.417 198.048 402.282 202.281C409.85 206.949 415.731 214.838 423.966 218.185C436.225 223.166 450.131 219.537 457.87 209.337L458.287 208.787C463.891 201.402 465.954 191.43 460.655 183.53C443.077 157.321 402.608 145.439 362.378 156.771Z" stroke="#606887" stroke-width="10"/>
<ellipse cx="170.984" cy="165" rx="34" ry="36" stroke="#606887" stroke-width="10"/>
</svg>
