<svg xmlns="http://www.w3.org/2000/svg" viewBox="0 0 240 240" fill="none">
  <g fill="#000" stroke="none">
    <path
      id="Torus270A"
      fill-rule="evenodd"
      d="
        M 172.000 29.933
        A 104.000 104.000 0 1 1 68.000 210.067
        A 104.000 104.000 0 0 1 29.933 68.000
        L 64.574 88.000
        A 64.000 64.000 0 1 0 175.426 152.000
        A 64.000 64.000 0 0 0 152.000 64.574
        Z
      "
    />
    <path
      id="Torus270B"
      fill-rule="evenodd"
      d="
        M 187.412 176.565
        A 88.000 88.000 0 1 1 52.588 63.435
        A 88.000 88.000 0 0 1 176.565 52.588
        L 152.139 81.698
        A 50.000 50.000 0 1 0 87.861 158.302
        A 50.000 50.000 0 0 0 158.302 152.139
        Z
      "
    />
    <path
      id="SemiTorus180A"
      fill-rule="evenodd"
      d="
        M 87.166 29.790
        A 96.000 96.000 0 1 1 152.834 210.210
        L 140.521 176.382
        A 60.000 60.000 0 1 0 99.479 63.618
        Z
      "
    />
    <path
      id="SemiTorus180B"
      fill-rule="evenodd"
      d="
        M 95.375 187.658
        A 72.000 72.000 0 1 1 144.625 52.342
        L 135.049 78.654
        A 44.000 44.000 0 1 0 104.951 161.346
        Z
      "
    />
    <path
      id="Wave"
      d="
        M 18 138
        C 42 78, 94 198, 120 138
        S 198 78, 222 138
        L 222 182
        C 198 242, 146 122, 120 182
        S 42 242, 18 182
        Z
      "
    />
  </g>
</svg>
