<svg xmlns="http://www.w3.org/2000/svg" viewBox="0 0 240 240" fill="none">
  <g fill="#000" stroke="none">
    <path
      id="Magnet1"
      fill-rule="evenodd"
      d="
        M 30 60
        C 30 20, 210 20, 210 60
        L 180 60
        C 180 45, 60 45, 60 60
        L 60 90
        C 60 130, 210 130, 210 90
        L 240 90
        C 240 160, 0 160, 0 90
        L 0 60
        C 0 20, 30 20, 30 60
        Z
        M 60 80
        C 60 115, 180 115, 180 80
        L 150 80
        C 150 95, 90 95, 90 80
        Z
      "
    />
    <path
      id="Wave"
      d="
        M 20 140
        C 40 90, 90 190, 120 140
        S 200 90, 220 140
        L 220 180
        C 200 230, 150 130, 120 180
        S 40 230, 20 180
        Z
      "
    />
    <path
      id="Magnet2"
      fill-rule="evenodd"
      d="
        M 30 180
        C 30 220, 210 220, 210 180
        L 180 180
        C 180 195, 60 195, 60 180
        L 60 150
        C 60 110, 210 110, 210 150
        L 240 150
        C 240 80, 0 80, 0 150
        L 0 180
        C 0 220, 30 220, 30 180
        Z
        M 60 160
        C 60 125, 180 125, 180 160
        L 150 160
        C 150 145, 90 145, 90 160
        Z
      "
    />
    <path
      id="OpenLoop"
      fill-rule="evenodd"
      d="
        M 120 20
        C 70 20, 30 60, 30 120
        C 30 180, 70 220, 120 220
        C 170 220, 210 180, 210 120
        C 210 60, 170 20, 120 20
        Z
        M 120 60
        C 150 60, 180 90, 180 120
        C 180 150, 150 180, 120 180
        C 90 180, 60 150, 60 120
        C 60 90, 90 60, 120 60
        Z
        M 200 120
        L 240 120
        L 240 150
        L 200 150
        Z
      "
    />
  </g>
</svg>
